# Blender v3.1.2 OBJ File: ''
# www.blender.org
mtllib GoatTail02.mtl
o GoatTail_1_Mesh.005
v 0.301665 0.414755 0.023352
v 0.300245 0.414647 0.000000
v 0.270330 0.431333 0.000000
v 0.273743 0.430497 0.024118
v 0.301665 0.414755 -0.023352
v 0.273743 0.430497 -0.024118
v 0.313688 0.418678 0.023352
v 0.288366 0.443487 0.000000
v 0.291400 0.441715 0.024118
v 0.313688 0.418678 -0.023352
v 0.291400 0.441715 -0.024118
v 0.304341 0.413795 0.000000
v 0.314395 0.416930 0.000000
v 0.315713 0.416704 0.021938
v 0.305669 0.413954 0.021938
v 0.305669 0.413954 -0.021938
v 0.315713 0.416704 -0.021938
v 0.316009 0.448079 0.000000
v 0.317486 0.445441 0.020752
v 0.323975 0.418635 0.020094
v 0.323975 0.418635 -0.020094
v 0.317486 0.445441 -0.020752
v 0.324616 0.416287 0.018877
v 0.323737 0.417029 0.000000
v 0.324616 0.416287 -0.018877
v 0.340068 0.438357 0.000000
v 0.340310 0.435976 0.016425
v 0.336575 0.414469 0.015903
v 0.336575 0.414469 -0.015903
v 0.340310 0.435976 -0.016425
v 0.336301 0.412562 0.014940
v 0.335896 0.413379 0.000000
v 0.336301 0.412562 -0.014940
v 0.350402 0.420008 0.000000
v 0.349788 0.418269 0.012656
v 0.341707 0.406327 0.012254
v 0.341707 0.406327 -0.012254
v 0.349788 0.418269 -0.012656
v 0.340889 0.405088 0.011512
v 0.340875 0.405790 0.000000
v 0.340889 0.405088 -0.011512
v 0.354483 0.406664 0.000000
v 0.353072 0.405711 0.009334
v 0.345476 0.399168 0.009038
v 0.345476 0.399168 -0.009037
v 0.353072 0.405711 -0.009334
v 0.344708 0.398489 0.008490
v 0.344695 0.398873 0.000000
v 0.344708 0.398489 -0.008490
v 0.366591 0.402288 0.000000
v 0.358216 0.401441 0.007114
v 0.356311 0.394117 0.006891
v 0.356295 0.394056 -0.006889
v 0.358216 0.401441 -0.007114
v 0.356105 0.393287 0.006471
v 0.363507 0.393788 0.000000
v 0.356105 0.393287 -0.006471
v 0.359882 0.402626 0.000000
v 0.364854 0.395475 0.000000
vt 0.504521 0.945355
vt 0.449719 0.944880
vt 0.445386 0.903337
vt 0.503796 0.905548
vt 0.507533 0.865917
vt 0.452844 0.862242
vt 0.510874 0.905820
vt 0.528704 0.906494
vt 0.529438 0.943948
vt 0.511599 0.943189
vt 0.517523 0.767388
vt 0.553855 0.768699
vt 0.548979 0.809957
vt 0.511909 0.809310
vt 0.548802 0.942214
vt 0.569405 0.948217
vt 0.533058 0.988731
vt 0.502313 0.970776
vt 0.556391 0.864861
vt 0.587540 0.847620
vt 0.622945 0.888958
vt 0.602210 0.894488
vt 0.552406 0.851363
vt 0.516052 0.851401
vt 0.514429 0.868608
vt 0.532269 0.869193
vt 0.555802 0.939892
vt 0.573150 0.944409
vt 0.626601 0.892848
vt 0.609155 0.896968
vt 0.599391 0.775367
vt 0.595847 0.810777
vt 0.587715 0.947527
vt 0.577969 0.993472
vt 0.632548 0.843913
vt 0.641234 0.890070
vt 0.598150 0.846295
vt 0.589194 0.943100
vt 0.544522 0.907092
vt 0.544972 0.939374
vt 0.642610 0.894530
vt 0.547408 0.874940
vt 0.642000 0.783719
vt 0.638858 0.811537
vt 0.610183 0.939735
vt 0.616988 0.976271
vt 0.671162 0.862006
vt 0.663517 0.898377
vt 0.641025 0.839449
vt 0.610000 0.936054
vt 0.565923 0.907902
vt 0.566261 0.933256
vt 0.663250 0.902054
vt 0.568174 0.882657
vt 0.676248 0.790808
vt 0.673836 0.812150
vt 0.620143 0.925177
vt 0.633480 0.945766
vt 0.686947 0.892884
vt 0.673141 0.913160
vt 0.675498 0.833559
vt 0.618940 0.922601
vt 0.581130 0.908479
vt 0.581361 0.927805
vt 0.671880 0.915707
vt 0.582824 0.889228
vt 0.697928 0.796540
vt 0.697589 0.812562
vt 0.627639 0.912438
vt 0.640055 0.924040
vt 0.693020 0.914756
vt 0.680340 0.926069
vt 0.697362 0.828583
vt 0.626421 0.910894
vt 0.594504 0.908983
vt 0.594160 0.923220
vt 0.679086 0.927585
vt 0.595238 0.894757
vt 0.708422 0.800231
vt 0.709716 0.812781
vt 0.646446 0.904352
vt 0.649495 0.916755
vt 0.702290 0.922255
vt 0.698930 0.934686
vt 0.707985 0.825257
vt 0.646339 0.902756
vt 0.627031 0.910216
vt 0.614947 0.921226
vt 0.698811 0.936185
vt 0.615814 0.898318
vt 0.721075 0.922557
vt 0.717705 0.934109
vt 0.665177 0.905258
vt 0.663188 0.902108
vt 0.721075 0.812981
vt 0.668281 0.916883
vt 0.715645 0.937214
vn -0.3364 -0.6798 0.6517
vn -0.8105 -0.3290 0.4846
vn -0.9404 -0.3401 -0.0000
vn -0.4613 -0.8872 -0.0000
vn -0.3364 -0.6798 -0.6517
vn -0.8105 -0.3290 -0.4846
vn 0.1376 -0.9905 -0.0000
vn 0.1522 -0.9884 0.0000
vn 0.1808 -0.9779 0.1052
vn 0.1432 -0.9840 0.1061
vn -0.2109 0.7142 0.6675
vn -0.3488 0.9372 0.0000
vn 0.1245 0.0175 0.9921
vn -0.2109 0.7142 -0.6675
vn 0.1245 0.0175 -0.9921
vn 0.1432 -0.9840 -0.1061
vn 0.1808 -0.9779 -0.1052
vn 0.1630 0.7670 0.6206
vn 0.0756 0.9971 -0.0000
vn 0.2079 0.0054 0.9781
vn 0.1630 0.7670 -0.6206
vn 0.2080 0.0054 -0.9781
vn -0.1127 -0.9892 0.0942
vn -0.1666 -0.9860 -0.0000
vn -0.1127 -0.9892 -0.0942
vn 0.5614 0.5604 0.6089
vn 0.5950 0.8037 -0.0000
vn 0.2423 -0.0806 0.9668
vn 0.5614 0.5604 -0.6089
vn 0.2423 -0.0806 -0.9668
vn -0.4447 -0.8915 0.0862
vn -0.5168 -0.8561 -0.0000
vn -0.4447 -0.8915 -0.0862
vn 0.7911 0.2199 0.5707
vn 0.9110 0.4124 0.0000
vn 0.2268 -0.1980 0.9536
vn 0.7911 0.2199 -0.5707
vn 0.2268 -0.1980 -0.9536
vn -0.8326 -0.5487 0.0752
vn -0.8565 -0.5161 -0.0000
vn -0.8326 -0.5487 -0.0752
vn 0.6805 0.0777 0.7286
vn 0.9127 0.4086 -0.0000
vn 0.1654 -0.2490 0.9543
vn 0.6800 0.0775 -0.7291
vn 0.1654 -0.2489 -0.9543
vn -0.6126 -0.7888 -0.0498
vn -0.5934 -0.8049 0.0000
vn -0.6129 -0.7885 0.0513
vn 0.5438 0.1350 0.8283
vn 0.4634 0.8862 -0.0000
vn 0.3895 -0.2359 0.8903
vn 0.5433 0.1341 -0.8288
vn 0.3891 -0.2361 -0.8905
vn -0.2733 -0.9558 -0.1089
vn -0.1236 -0.9923 0.0026
vn -0.2740 -0.9553 0.1114
vn 0.9999 -0.0131 -0.0000
vn 0.9530 -0.3031 -0.0023
usemtl lambert1.005
s 1
f 1/1/1 4/2/2 3/3/3 2/4/4
f 5/5/5 2/4/4 3/3/3 6/6/6
f 12/7/7 13/8/8 14/9/9 15/10/10
f 4/11/2 9/12/11 8/13/12 3/14/3
f 1/15/1 7/16/13 9/17/11 4/18/2
f 6/19/6 11/20/14 10/21/15 5/22/5
f 3/14/3 8/13/12 11/23/14 6/24/6
f 16/25/16 17/26/17 13/8/8 12/7/7
f 7/16/13 1/15/1 15/27/10 14/28/9
f 1/1/1 2/4/4 12/7/7 15/10/10
f 5/22/5 10/21/15 17/29/17 16/30/16
f 2/4/4 5/5/5 16/25/16 12/7/7
f 8/13/12 9/12/11 19/31/18 18/32/19
f 9/17/11 7/16/13 20/33/20 19/34/18
f 10/21/15 11/20/14 22/35/21 21/36/22
f 11/23/14 8/13/12 18/32/19 22/37/21
f 7/16/13 14/28/9 23/38/23 20/33/20
f 14/9/9 13/8/8 24/39/24 23/40/23
f 17/29/17 10/21/15 21/36/22 25/41/25
f 13/8/8 17/26/17 25/42/25 24/39/24
f 18/32/19 19/31/18 27/43/26 26/44/27
f 19/34/18 20/33/20 28/45/28 27/46/26
f 21/36/22 22/35/21 30/47/29 29/48/30
f 22/37/21 18/32/19 26/44/27 30/49/29
f 20/33/20 23/38/23 31/50/31 28/45/28
f 23/40/23 24/39/24 32/51/32 31/52/31
f 25/41/25 21/36/22 29/48/30 33/53/33
f 24/39/24 25/42/25 33/54/33 32/51/32
f 26/44/27 27/43/26 35/55/34 34/56/35
f 27/46/26 28/45/28 36/57/36 35/58/34
f 29/48/30 30/47/29 38/59/37 37/60/38
f 30/49/29 26/44/27 34/56/35 38/61/37
f 28/45/28 31/50/31 39/62/39 36/57/36
f 31/52/31 32/51/32 40/63/40 39/64/39
f 33/53/33 29/48/30 37/60/38 41/65/41
f 32/51/32 33/54/33 41/66/41 40/63/40
f 34/56/35 35/55/34 43/67/42 42/68/43
f 35/58/34 36/57/36 44/69/44 43/70/42
f 37/60/38 38/59/37 46/71/45 45/72/46
f 38/61/37 34/56/35 42/68/43 46/73/45
f 36/57/36 39/62/39 47/74/47 44/69/44
f 39/64/39 40/63/40 48/75/48 47/76/47
f 41/65/41 37/60/38 45/72/46 49/77/49
f 40/63/40 41/66/41 49/78/49 48/75/48
f 42/68/43 43/67/42 51/79/50 58/80/51
f 43/70/42 44/69/44 52/81/52 51/82/50
f 45/72/46 46/71/45 54/83/53 53/84/54
f 46/73/45 42/68/43 58/80/51 54/85/53
f 44/69/44 47/74/47 55/86/55 52/81/52
f 47/76/47 48/75/48 56/87/56 55/88/55
f 49/77/49 45/72/46 53/84/54 57/89/57
f 48/75/48 49/78/49 57/90/57 56/87/56
f 50/91/58 59/92/59 53/84/54 54/83/53
f 59/93/59 52/81/52 55/86/55 56/94/56
f 58/80/51 51/79/50 50/95/58
f 54/85/53 58/80/51 50/95/58
f 51/82/50 52/81/52 59/93/59 50/96/58
f 53/84/54 59/92/59 56/97/56 57/89/57
