# Blender v3.1.2 OBJ File: ''
# www.blender.org
mtllib GoatTail03.mtl
o GoatTail_2_Mesh.006
v 0.301665 0.414755 0.023352
v 0.300245 0.414647 0.000000
v 0.270330 0.431333 0.000000
v 0.273743 0.430497 0.024118
v 0.301665 0.414755 -0.023352
v 0.273743 0.430497 -0.024118
v 0.313666 0.418745 0.023352
v 0.288366 0.443487 0.000000
v 0.291400 0.441715 0.024118
v 0.313666 0.418745 -0.023352
v 0.291400 0.441715 -0.024118
v 0.304341 0.413795 0.000000
v 0.314271 0.415289 0.000000
v 0.315587 0.416853 0.021938
v 0.305669 0.413954 0.021938
v 0.305669 0.413954 -0.021938
v 0.315587 0.416853 -0.021938
v 0.318007 0.445571 0.000000
v 0.317539 0.442360 0.020752
v 0.323446 0.418252 0.020094
v 0.323446 0.418252 -0.020094
v 0.317539 0.442066 -0.020752
v 0.323699 0.415730 0.018877
v 0.322937 0.414778 0.000000
v 0.323699 0.415730 -0.018877
v 0.343219 0.429139 0.000000
v 0.342543 0.426169 0.016425
v 0.334222 0.410738 0.015903
v 0.334222 0.410738 -0.015903
v 0.342543 0.426169 -0.016425
v 0.333540 0.408963 0.014940
v 0.332386 0.407804 0.000000
v 0.333540 0.408963 -0.014940
v 0.362992 0.403674 0.000000
v 0.360280 0.401474 0.015499
v 0.350264 0.391806 0.015007
v 0.350264 0.391806 -0.015006
v 0.360280 0.401474 -0.015499
v 0.349303 0.390607 0.014098
v 0.348458 0.388945 0.000000
v 0.349303 0.390607 -0.014098
v 0.372555 0.379338 0.000000
v 0.369843 0.377739 0.014973
v 0.359827 0.371313 0.014498
v 0.359827 0.371313 -0.014498
v 0.369843 0.377739 -0.014973
v 0.358866 0.370517 0.013620
v 0.356563 0.370823 0.000000
v 0.358866 0.370517 -0.013620
v 0.376911 0.342095 0.000000
v 0.373994 0.341267 0.014268
v 0.363978 0.336833 0.013815
v 0.363978 0.336833 -0.013815
v 0.373994 0.341267 -0.014268
v 0.363017 0.336283 0.012979
v 0.360924 0.336638 0.000000
v 0.363017 0.336283 -0.012979
v 0.377148 0.293452 0.000000
v 0.374054 0.293040 0.013100
v 0.363861 0.292160 0.012684
v 0.363861 0.292160 -0.012684
v 0.374054 0.293040 -0.013100
v 0.362861 0.291983 0.011916
v 0.361130 0.292225 0.000000
v 0.362861 0.291983 -0.011916
v 0.383514 0.235536 -0.001575
v 0.379823 0.233655 0.010276
v 0.371031 0.229530 0.009368
v 0.372404 0.231439 -0.013929
v 0.381596 0.236150 -0.013712
v 0.370237 0.229127 0.008636
v 0.369624 0.229540 -0.002412
v 0.371493 0.230872 -0.013256
v 0.388268 0.225694 -0.002925
v 0.384708 0.222926 0.008237
v 0.377882 0.215500 0.006815
v 0.379748 0.218148 -0.015335
v 0.386924 0.226104 -0.014555
v 0.377331 0.214755 0.006073
v 0.376789 0.215146 -0.004469
v 0.379053 0.217197 -0.014743
v 0.394016 0.219095 -0.003784
v 0.391362 0.215559 0.007228
v 0.390167 0.206525 0.005413
v 0.392601 0.210057 -0.016557
v 0.393964 0.219348 -0.015429
v 0.390276 0.205667 0.004596
v 0.391404 0.205880 -0.006006
v 0.392562 0.208985 -0.016043
v 0.402318 0.215460 -0.003771
v 0.401413 0.212129 0.006951
v 0.402709 0.204333 0.005261
v 0.405447 0.208374 -0.015815
v 0.404240 0.216302 -0.014815
v 0.403061 0.203672 0.004507
v 0.404180 0.204603 -0.005617
v 0.405633 0.207468 -0.015292
v 0.410789 0.215396 -0.002768
v 0.410239 0.212810 0.007622
v 0.411388 0.206083 0.006086
v 0.414093 0.210094 -0.014012
v 0.413033 0.216952 -0.013135
v 0.411723 0.205531 0.005377
v 0.412298 0.206977 -0.004245
v 0.414265 0.209299 -0.013504
v 0.412451 0.212848 0.009147
v 0.413684 0.206318 0.007622
v 0.416689 0.210774 -0.014708
v 0.415555 0.217450 -0.013916
v 0.414300 0.205838 0.006894
v 0.417309 0.210052 -0.014053
v 0.416451 0.217552 -0.001575
v 0.409701 0.209345 0.026630
v 0.410836 0.203886 0.024717
v 0.419391 0.215266 -0.031411
v 0.418504 0.221094 -0.031344
v 0.412436 0.203806 0.021671
v 0.419716 0.209822 -0.002679
v 0.420165 0.213962 -0.028321
v 0.414274 0.213478 0.009920
v 0.417439 0.218177 -0.013596
v 0.420103 0.211760 -0.013683
v 0.417268 0.207561 0.007374
v 0.426613 0.219080 0.000097
v 0.425826 0.215928 0.007756
v 0.423117 0.207418 0.017132
v 0.422023 0.212939 0.018737
v 0.429142 0.215047 -0.020199
v 0.428214 0.220813 -0.019824
v 0.427933 0.219060 -0.007907
v 0.423374 0.207067 0.015896
v 0.427967 0.211525 -0.001228
v 0.427063 0.210083 0.005578
v 0.429093 0.214243 -0.019165
v 0.428952 0.212879 -0.008447
v 0.438865 0.220408 0.002011
v 0.438571 0.218874 0.005202
v 0.438974 0.212294 0.008762
v 0.437983 0.217574 0.009956
v 0.441100 0.215446 -0.007033
v 0.440179 0.220830 -0.006356
v 0.439458 0.220197 -0.001396
v 0.439136 0.211844 0.008188
v 0.440030 0.213910 0.000872
v 0.439657 0.213259 0.003731
v 0.441133 0.214805 -0.006650
v 0.440453 0.214435 -0.002178
v 0.452432 0.222254 0.004206
v 0.451952 0.221772 0.004971
v 0.451808 0.216131 0.005088
v 0.450560 0.220918 0.005947
v 0.452365 0.216956 0.000952
v 0.451135 0.221771 0.001675
v 0.452183 0.222123 0.003244
v 0.451952 0.215665 0.004882
v 0.453483 0.216471 0.003193
v 0.453177 0.216224 0.003899
v 0.452475 0.216440 0.000996
v 0.453386 0.216530 0.002351
v 0.453285 0.216689 0.004016
v 0.453805 0.216936 0.003330
v 0.453495 0.217000 0.002455
v 0.413953 0.215848 -0.002252
v 0.415598 0.208726 -0.003451
v 0.365364 0.263058 0.012188
v 0.374905 0.265300 0.012726
v 0.377951 0.265901 0.000220
v 0.375197 0.265692 -0.012471
v 0.365516 0.263262 -0.012212
v 0.364581 0.262940 -0.011481
v 0.363009 0.262793 -0.000029
v 0.364448 0.262762 0.011442
vt 0.085138 0.536145
vt 0.085383 0.491379
vt 0.119199 0.487679
vt 0.117765 0.535516
vt 0.150285 0.538105
vt 0.152728 0.493410
vt 0.117598 0.541361
vt 0.117155 0.555488
vt 0.086230 0.556205
vt 0.086902 0.541893
vt 0.085072 0.491383
vt 0.084822 0.521028
vt 0.051065 0.517831
vt 0.050774 0.487679
vt 0.199907 0.533847
vt 0.187856 0.548443
vt 0.167814 0.506640
vt 0.191922 0.487679
vt 0.206467 0.487679
vt 0.230547 0.505196
vt 0.212285 0.546944
vt 0.200111 0.533037
vt 0.017377 0.521679
vt 0.016554 0.492045
vt 0.148176 0.543741
vt 0.147985 0.558071
vt 0.199522 0.540276
vt 0.189494 0.552703
vt 0.210730 0.551196
vt 0.200657 0.539308
vt 0.080494 0.558218
vt 0.051471 0.558079
vt 0.181926 0.562711
vt 0.154228 0.541457
vt 0.244933 0.538548
vt 0.218594 0.561172
vt 0.022390 0.558775
vt 0.185040 0.565436
vt 0.116783 0.567846
vt 0.090180 0.567633
vt 0.215332 0.564095
vt 0.143355 0.569237
vt 0.075087 0.601054
vt 0.051700 0.599184
vt 0.183059 0.582663
vt 0.160460 0.580845
vt 0.242348 0.578181
vt 0.218542 0.582534
vt 0.028336 0.601315
vt 0.185842 0.583487
vt 0.116269 0.584605
vt 0.095284 0.584120
vt 0.215552 0.583705
vt 0.137261 0.585389
vt 0.074169 0.644421
vt 0.051950 0.643731
vt 0.189530 0.615465
vt 0.172009 0.615021
vt 0.235013 0.616528
vt 0.216235 0.618995
vt 0.029741 0.644670
vt 0.191934 0.615433
vt 0.115218 0.619514
vt 0.095482 0.617598
vt 0.213594 0.619299
vt 0.135049 0.618789
vt 0.073451 0.680721
vt 0.052149 0.679549
vt 0.192418 0.647874
vt 0.176909 0.643829
vt 0.231807 0.648215
vt 0.216048 0.652678
vt 0.030862 0.680958
vt 0.192070 0.616207
vt 0.194548 0.648553
vt 0.114390 0.647617
vt 0.095098 0.648245
vt 0.213736 0.620014
vt 0.213942 0.653421
vt 0.133588 0.649383
vt 0.072799 0.732344
vt 0.052438 0.731537
vt 0.195448 0.699440
vt 0.180339 0.694052
vt 0.227846 0.698464
vt 0.212895 0.703170
vt 0.032088 0.732571
vt 0.197396 0.700159
vt 0.112933 0.696011
vt 0.094545 0.696128
vt 0.210980 0.703804
vt 0.131260 0.697242
vt 0.071647 0.799833
vt 0.052832 0.799455
vt 0.198012 0.767524
vt 0.182719 0.766558
vt 0.222534 0.768240
vt 0.207696 0.768302
vt 0.033997 0.800061
vt 0.199900 0.767778
vt 0.111058 0.758093
vt 0.094226 0.758001
vt 0.205862 0.768439
vt 0.127842 0.759020
vt 0.071416 0.838457
vt 0.053372 0.838214
vt 0.197742 0.811512
vt 0.183191 0.809391
vt 0.220064 0.808873
vt 0.205626 0.810117
vt 0.035197 0.838180
vt 0.199499 0.811892
vt 0.109850 0.799175
vt 0.093697 0.798992
vt 0.203890 0.810329
vt 0.125993 0.799738
vt 0.051144 0.881744
vt 0.068645 0.882957
vt 0.065669 0.898760
vt 0.048934 0.897510
vt 0.182766 0.858594
vt 0.196735 0.861779
vt 0.195603 0.882285
vt 0.181809 0.878002
vt 0.205684 0.856214
vt 0.220048 0.853637
vt 0.220767 0.871390
vt 0.206548 0.874834
vt 0.034011 0.880134
vt 0.032730 0.895372
vt 0.198295 0.862214
vt 0.196983 0.882859
vt 0.096263 0.846919
vt 0.111748 0.846471
vt 0.114298 0.868504
vt 0.099679 0.869718
vt 0.204146 0.856277
vt 0.205014 0.875231
vt 0.127219 0.845821
vt 0.129204 0.868121
vt 0.063507 0.911954
vt 0.046951 0.910182
vt 0.191667 0.900872
vt 0.180779 0.893963
vt 0.221900 0.886401
vt 0.210690 0.892464
vt 0.030685 0.908316
vt 0.192810 0.901797
vt 0.117865 0.891980
vt 0.102992 0.892105
vt 0.209466 0.893198
vt 0.132504 0.890461
vt 0.060583 0.925976
vt 0.045064 0.923179
vt 0.185713 0.915530
vt 0.176702 0.909540
vt 0.225769 0.901805
vt 0.216165 0.907084
vt 0.029297 0.922827
vt 0.186693 0.916429
vt 0.120014 0.909459
vt 0.105746 0.910364
vt 0.215052 0.907822
vt 0.134208 0.909090
vt 0.058502 0.937947
vt 0.043743 0.935285
vt 0.178992 0.924481
vt 0.171785 0.920325
vt 0.230279 0.913399
vt 0.221942 0.916934
vt 0.028731 0.935171
vt 0.179945 0.925247
vt 0.120740 0.921276
vt 0.107184 0.922873
vt 0.220873 0.917510
vt 0.134349 0.921779
vt 0.176459 0.926845
vt 0.170965 0.923034
vt 0.231098 0.916532
vt 0.223847 0.920022
vt 0.026758 0.938377
vt 0.043328 0.939845
vt 0.177351 0.927835
vt 0.105803 0.926837
vt 0.120953 0.926590
vt 0.222585 0.920122
vt 0.166227 0.935645
vt 0.161754 0.934669
vt 0.001491 0.936928
vt 0.026394 0.941222
vt 0.084878 0.928415
vt 0.106374 0.931649
vt 0.234885 0.932540
vt 0.231914 0.932234
vt 0.059858 0.941458
vt 0.060131 0.944360
vt 0.042936 0.944144
vt 0.240370 0.932028
vt 0.168708 0.935611
vt 0.177363 0.926845
vt 0.136066 0.925876
vt 0.136691 0.930443
vt 0.121188 0.932633
vt 0.085085 0.943283
vt 0.157075 0.926912
vt 0.053104 0.959595
vt 0.041593 0.958507
vt 0.169857 0.947609
vt 0.162835 0.947890
vt 0.236838 0.946241
vt 0.229654 0.945219
vt 0.030360 0.957483
vt 0.171332 0.948327
vt 0.121662 0.944561
vt 0.111855 0.944948
vt 0.228094 0.945861
vt 0.132018 0.944140
vt 0.069747 0.957740
vt 0.013911 0.953966
vt 0.146899 0.941591
vt 0.096211 0.942224
vt 0.044932 0.976319
vt 0.039981 0.975828
vt 0.169577 0.973235
vt 0.161718 0.972725
vt 0.235435 0.969743
vt 0.227718 0.969594
vt 0.035144 0.975411
vt 0.170585 0.973645
vt 0.122361 0.961975
vt 0.118234 0.962135
vt 0.226700 0.969929
vt 0.126722 0.961795
vt 0.051849 0.976960
vt 0.028105 0.974756
vt 0.133056 0.961520
vt 0.111666 0.962378
vt 0.039546 0.994720
vt 0.038186 0.995172
vt 0.166239 0.994120
vt 0.158898 0.992696
vt 0.236597 0.989250
vt 0.229416 0.990013
vt 0.036966 0.994481
vt 0.167004 0.994359
vt 0.123141 0.981367
vt 0.122045 0.981097
vt 0.228663 0.990181
vt 0.124273 0.981008
vt 0.041628 0.993055
vt 0.035193 0.992459
vt 0.125867 0.979371
vt 0.120264 0.979596
vt 0.237352 0.991895
vt 0.229724 0.992751
vt 0.157861 0.995335
vt 0.165679 0.996981
vt 0.165418 0.998306
vt 0.157235 0.996739
vt 0.237811 0.993265
vt 0.229867 0.994094
vt 0.166412 0.996913
vt 0.166272 0.998141
vt 0.229024 0.993867
vt 0.229018 0.992617
vt 0.203959 0.856676
vn -0.3367 -0.6805 0.6508
vn -0.8105 -0.3290 0.4846
vn -0.9404 -0.3401 -0.0000
vn -0.4613 -0.8872 -0.0000
vn -0.3367 -0.6805 -0.6508
vn -0.8105 -0.3290 -0.4846
vn 0.0882 -0.9961 -0.0000
vn 0.0912 -0.9958 0.0000
vn 0.1242 -0.9782 0.1663
vn 0.0988 -0.9862 0.1329
vn -0.1781 0.7476 0.6398
vn -0.2938 0.9559 -0.0017
vn 0.1266 0.0189 0.9918
vn -0.1764 0.7484 -0.6394
vn 0.1266 0.0190 -0.9918
vn 0.0988 -0.9862 -0.1329
vn 0.1241 -0.9782 -0.1663
vn 0.2654 0.7873 0.5566
vn 0.2479 0.9688 -0.0032
vn 0.1966 -0.0125 0.9804
vn 0.2663 0.7853 -0.5589
vn 0.1969 -0.0128 -0.9803
vn -0.2666 -0.9431 0.1987
vn -0.3533 -0.9355 -0.0000
vn -0.2666 -0.9431 -0.1987
vn 0.5813 0.5425 0.6065
vn 0.6734 0.7393 -0.0018
vn 0.0676 -0.0673 0.9954
vn 0.5799 0.5437 -0.6067
vn 0.0673 -0.0675 -0.9954
vn -0.6654 -0.7179 0.2047
vn -0.6952 -0.7188 -0.0000
vn -0.6654 -0.7179 -0.2047
vn 0.6326 0.3453 0.6933
vn 0.8645 0.5026 0.0000
vn -0.0470 -0.0634 0.9969
vn 0.6326 0.3453 -0.6933
vn -0.0470 -0.0634 -0.9969
vn -0.8098 -0.5475 0.2109
vn -0.8365 -0.5479 -0.0000
vn -0.8098 -0.5475 -0.2109
vn 0.7425 0.1555 0.6516
vn 0.9740 0.2266 -0.0000
vn -0.0765 -0.0410 0.9962
vn 0.7425 0.1555 -0.6516
vn -0.0765 -0.0410 -0.9962
vn -0.9466 -0.2327 0.2231
vn -0.9686 -0.2488 -0.0000
vn -0.9466 -0.2327 -0.2231
vn 0.7470 0.0264 0.6643
vn 0.9986 0.0527 -0.0000
vn -0.0946 -0.0282 0.9951
vn 0.7470 0.0264 -0.6643
vn -0.0946 -0.0282 -0.9951
vn -0.9739 -0.0567 0.2199
vn -0.9982 -0.0595 -0.0000
vn -0.9739 -0.0567 -0.2199
vn 0.7029 -0.0044 0.7113
vn 0.9999 0.0107 0.0019
vn -0.1093 -0.0228 0.9937
vn 0.7048 -0.0046 -0.7094
vn -0.1037 -0.0243 -0.9943
vn -0.9782 -0.0254 0.2061
vn -0.9997 -0.0245 -0.0010
vn -0.9777 -0.0262 -0.2084
vn 0.6457 0.0307 0.7630
vn 0.9937 0.1055 0.0368
vn -0.1141 -0.0641 0.9914
vn 0.6757 0.0911 -0.7315
vn -0.0956 0.0060 -0.9954
vn -0.9758 -0.1287 0.1769
vn -0.9915 -0.1289 -0.0179
vn -0.9683 -0.1275 -0.2148
vn 0.9675 0.2395 0.0809
vn 0.5778 0.0532 0.8145
vn 0.4784 0.1507 0.8651
vn 0.8344 0.5292 0.1543
vn -0.1124 -0.1389 0.9839
vn -0.0894 -0.2354 0.9678
vn -0.0951 0.0362 -0.9948
vn 0.6259 0.2154 -0.7496
vn 0.4942 0.4223 -0.7599
vn -0.0825 0.0426 -0.9957
vn -0.9530 -0.2721 0.1333
vn -0.7499 -0.6590 0.0573
vn -0.9607 -0.2718 -0.0568
vn -0.7463 -0.6510 -0.1386
vn -0.9326 -0.2614 -0.2488
vn -0.7013 -0.6301 -0.3335
vn 0.3075 0.3116 0.8991
vn 0.5495 0.8119 0.1971
vn -0.0724 -0.2748 0.9588
vn 0.3373 0.5943 -0.7301
vn -0.0030 0.0341 -0.9994
vn -0.3931 -0.9195 0.0056
vn -0.3594 -0.9151 -0.1825
vn -0.3344 -0.8698 -0.3627
vn 0.0889 0.5125 0.8540
vn 0.1709 0.9651 0.1986
vn -0.0436 -0.3014 0.9525
vn 0.1859 0.7721 -0.6077
vn 0.1201 0.0471 -0.9916
vn 0.0152 -0.9997 -0.0205
vn 0.0373 -0.9832 -0.1786
vn 0.0653 -0.9418 -0.3298
vn -0.1622 0.6762 0.7187
vn -0.0809 0.9802 0.1808
vn -0.1347 -0.3204 0.9377
vn -0.0287 0.8976 -0.4398
vn 0.0984 0.0546 -0.9936
vn 0.2834 -0.9570 -0.0621
vn 0.2944 -0.9444 -0.1467
vn 0.3062 -0.9235 -0.2312
vn -0.9459 -0.3207 -0.0486
vn -0.9585 0.2811 0.0476
vn -0.9203 0.3202 -0.2247
vn -0.8817 -0.2884 -0.3733
vn -0.3400 0.9299 0.1399
vn 0.3421 -0.9315 -0.1237
vn 0.3826 -0.9147 -0.1301
vn 0.3323 -0.9310 -0.1509
vn -0.7174 -0.4235 0.5531
vn -0.6486 0.4155 0.6377
vn -0.4483 0.6962 -0.5607
vn -0.1920 0.9759 0.1037
vn 0.1022 -0.9924 -0.0680
vn 0.2587 -0.9501 -0.1741
vn -0.4905 -0.1430 -0.8596
vn 0.1383 -0.9482 -0.2860
vn -0.2069 0.9516 0.2273
vn -0.2187 0.9621 0.1628
vn 0.2548 -0.9576 -0.1348
vn 0.2738 -0.9496 -0.1524
vn -0.1627 0.9493 0.2690
vn -0.1355 0.9749 0.1768
vn 0.5392 -0.2759 0.7957
vn 0.1669 0.7375 0.6544
vn 0.2754 0.9322 -0.2349
vn 0.7494 0.0179 -0.6619
vn -0.1378 0.9873 0.0789
vn 0.2345 -0.9637 -0.1279
vn 0.2188 -0.9622 -0.1624
vn 0.2038 -0.9585 -0.1994
vn 0.2422 -0.9522 -0.1863
vn 0.1946 -0.9719 -0.1323
vn -0.1647 0.9349 0.3144
vn -0.1324 0.9752 0.1776
vn 0.4438 -0.2098 0.8712
vn 0.1869 0.5772 0.7949
vn 0.3458 0.8409 -0.4162
vn 0.6742 0.1158 -0.7294
vn -0.1273 0.9914 0.0309
vn 0.2303 -0.9619 -0.1476
vn 0.2140 -0.9631 -0.1630
vn 0.2058 -0.9539 -0.2183
vn 0.2329 -0.9576 -0.1697
vn 0.1915 -0.9749 -0.1133
vn -0.0115 0.8469 0.5317
vn 0.0203 0.9798 0.1990
vn 0.3595 -0.1511 0.9208
vn 0.1606 0.4709 0.8675
vn 0.3475 0.7596 -0.5498
vn 0.5885 0.1899 -0.7858
vn 0.0818 0.9841 -0.1579
vn 0.2504 -0.9550 -0.1592
vn 0.2268 -0.9607 -0.1602
vn 0.2317 -0.9513 -0.2034
vn 0.2499 -0.9558 -0.1551
vn 0.2201 -0.9680 -0.1202
vn 0.8364 0.2574 -0.4838
vn 0.6729 0.0103 0.7397
vn 0.9705 0.1755 0.1654
usemtl lambert1.006
s 1
f 1/1/1 4/2/2 3/3/3 2/4/4
f 5/5/5 2/4/4 3/3/3 6/6/6
f 12/7/7 13/8/8 14/9/9 15/10/10
f 4/11/2 9/12/11 8/13/12 3/14/3
f 1/15/1 7/16/13 9/17/11 4/18/2
f 6/19/6 11/20/14 10/21/15 5/22/5
f 3/14/3 8/13/12 11/23/14 6/24/6
f 16/25/16 17/26/17 13/8/8 12/7/7
f 7/16/13 1/15/1 15/27/10 14/28/9
f 1/1/1 2/4/4 12/7/7 15/10/10
f 5/22/5 10/21/15 17/29/17 16/30/16
f 2/4/4 5/5/5 16/25/16 12/7/7
f 8/13/12 9/12/11 19/31/18 18/32/19
f 9/17/11 7/16/13 20/33/20 19/34/18
f 10/21/15 11/20/14 22/35/21 21/36/22
f 11/23/14 8/13/12 18/32/19 22/37/21
f 7/16/13 14/28/9 23/38/23 20/33/20
f 14/9/9 13/8/8 24/39/24 23/40/23
f 17/29/17 10/21/15 21/36/22 25/41/25
f 13/8/8 17/26/17 25/42/25 24/39/24
f 18/32/19 19/31/18 27/43/26 26/44/27
f 19/34/18 20/33/20 28/45/28 27/46/26
f 21/36/22 22/35/21 30/47/29 29/48/30
f 22/37/21 18/32/19 26/44/27 30/49/29
f 20/33/20 23/38/23 31/50/31 28/45/28
f 23/40/23 24/39/24 32/51/32 31/52/31
f 25/41/25 21/36/22 29/48/30 33/53/33
f 24/39/24 25/42/25 33/54/33 32/51/32
f 26/44/27 27/43/26 35/55/34 34/56/35
f 27/46/26 28/45/28 36/57/36 35/58/34
f 29/48/30 30/47/29 38/59/37 37/60/38
f 30/49/29 26/44/27 34/56/35 38/61/37
f 28/45/28 31/50/31 39/62/39 36/57/36
f 31/52/31 32/51/32 40/63/40 39/64/39
f 33/53/33 29/48/30 37/60/38 41/65/41
f 32/51/32 33/54/33 41/66/41 40/63/40
f 34/56/35 35/55/34 43/67/42 42/68/43
f 35/58/34 36/57/36 44/69/44 43/70/42
f 37/60/38 38/59/37 46/71/45 45/72/46
f 38/61/37 34/56/35 42/68/43 46/73/45
f 36/57/36 39/74/39 47/75/47 44/69/44
f 39/64/39 40/63/40 48/76/48 47/77/47
f 41/78/41 37/60/38 45/72/46 49/79/49
f 40/63/40 41/66/41 49/80/49 48/76/48
f 42/68/43 43/67/42 51/81/50 50/82/51
f 43/70/42 44/69/44 52/83/52 51/84/50
f 45/72/46 46/71/45 54/85/53 53/86/54
f 46/73/45 42/68/43 50/82/51 54/87/53
f 44/69/44 47/75/47 55/88/55 52/83/52
f 47/77/47 48/76/48 56/89/56 55/90/55
f 49/79/49 45/72/46 53/86/54 57/91/57
f 48/76/48 49/80/49 57/92/57 56/89/56
f 50/82/51 51/81/50 59/93/58 58/94/59
f 51/84/50 52/83/52 60/95/60 59/96/58
f 53/86/54 54/85/53 62/97/61 61/98/62
f 54/87/53 50/82/51 58/94/59 62/99/61
f 52/83/52 55/88/55 63/100/63 60/95/60
f 55/90/55 56/89/56 64/101/64 63/102/63
f 57/91/57 53/86/54 61/98/62 65/103/65
f 56/89/56 57/92/57 65/104/65 64/101/64
f 58/94/59 59/93/58 166/105/66 167/106/67
f 59/96/58 60/95/60 165/107/68 166/108/66
f 61/98/62 62/97/61 168/109/69 169/110/70
f 62/99/61 58/94/59 167/106/67 168/111/69
f 60/95/60 63/100/63 172/112/71 165/107/68
f 63/102/63 64/101/64 171/113/72 172/114/71
f 65/103/65 61/98/62 169/110/70 170/115/73
f 64/101/64 65/104/65 170/116/73 171/113/72
f 66/117/74 67/118/75 75/119/76 74/120/77
f 67/121/75 68/122/78 76/123/79 75/124/76
f 69/125/80 70/126/81 78/127/82 77/128/83
f 70/129/81 66/117/74 74/120/77 78/130/82
f 68/122/78 71/131/84 79/132/85 76/123/79
f 71/133/84 72/134/86 80/135/87 79/136/85
f 73/137/88 69/125/80 77/128/83 81/138/89
f 72/134/86 73/139/88 81/140/89 80/135/87
f 74/120/77 75/119/76 83/141/90 82/142/91
f 75/124/76 76/123/79 84/143/92 83/144/90
f 77/128/83 78/127/82 86/145/93 85/146/94
f 78/130/82 74/120/77 82/142/91 86/147/93
f 76/123/79 79/132/85 87/148/95 84/143/92
f 79/136/85 80/135/87 88/149/96 87/150/95
f 81/138/89 77/128/83 85/146/94 89/151/97
f 80/135/87 81/140/89 89/152/97 88/149/96
f 82/142/91 83/141/90 91/153/98 90/154/99
f 83/144/90 84/143/92 92/155/100 91/156/98
f 85/146/94 86/145/93 94/157/101 93/158/102
f 86/147/93 82/142/91 90/154/99 94/159/101
f 84/143/92 87/148/95 95/160/103 92/155/100
f 87/150/95 88/149/96 96/161/104 95/162/103
f 89/151/97 85/146/94 93/158/102 97/163/105
f 88/149/96 89/152/97 97/164/105 96/161/104
f 90/154/99 91/153/98 99/165/106 98/166/107
f 91/156/98 92/155/100 100/167/108 99/168/106
f 93/158/102 94/157/101 102/169/109 101/170/110
f 94/159/101 90/154/99 98/166/107 102/171/109
f 92/155/100 95/160/103 103/172/111 100/167/108
f 95/162/103 96/161/104 104/173/112 103/174/111
f 97/163/105 93/158/102 101/170/110 105/175/113
f 96/161/104 97/164/105 105/176/113 104/173/112
f 99/168/106 100/167/108 107/177/114 106/178/115
f 101/170/110 102/169/109 109/179/116 108/180/117
f 109/181/116 102/171/109 98/166/107 163/182/118
f 100/167/108 103/172/111 110/183/119 107/177/114
f 110/184/119 103/174/111 104/173/112 164/185/120
f 105/175/113 101/170/110 108/180/117 111/186/121
f 106/178/115 107/177/114 114/187/122 113/188/123
f 116/189/124 109/181/116 121/190/125
f 117/191/126 110/184/119 123/192/127
f 111/186/121 108/180/117 115/193/128 119/194/129
f 106/195/115 120/196/130 112/197/131 163/182/118
f 116/198/124 115/193/128 108/180/117 109/179/116
f 117/199/126 114/187/122 107/177/114 110/200/119
f 111/201/121 122/202/132 118/203/133 164/185/120
f 106/195/115 113/204/123 120/196/130
f 109/181/116 163/182/118 112/197/131 121/190/125
f 111/201/121 119/205/129 122/202/132
f 110/184/119 164/185/120 118/203/133 123/192/127
f 112/197/131 120/196/130 125/206/134 124/207/135
f 113/188/123 114/187/122 126/208/136 127/209/137
f 115/193/128 116/198/124 129/210/138 128/211/139
f 121/190/125 112/197/131 124/207/135 130/212/140
f 114/187/122 117/199/126 131/213/141 126/208/136
f 123/192/127 118/203/133 132/214/142 133/215/143
f 119/194/129 115/193/128 128/211/139 134/216/144
f 118/203/133 122/202/132 135/217/145 132/214/142
f 120/196/130 113/204/123 127/218/137 125/206/134
f 116/189/124 121/190/125 130/212/140 129/219/138
f 122/202/132 119/205/129 134/220/144 135/217/145
f 117/191/126 123/192/127 133/215/143 131/221/141
f 124/207/135 125/206/134 137/222/146 136/223/147
f 127/209/137 126/208/136 138/224/148 139/225/149
f 128/211/139 129/210/138 141/226/150 140/227/151
f 130/212/140 124/207/135 136/223/147 142/228/152
f 126/208/136 131/213/141 143/229/153 138/224/148
f 133/215/143 132/214/142 144/230/154 145/231/155
f 134/216/144 128/211/139 140/227/151 146/232/156
f 132/214/142 135/217/145 147/233/157 144/230/154
f 125/206/134 127/218/137 139/234/149 137/222/146
f 129/219/138 130/212/140 142/228/152 141/235/150
f 135/217/145 134/220/144 146/236/156 147/233/157
f 131/221/141 133/215/143 145/231/155 143/237/153
f 136/223/147 137/222/146 149/238/158 148/239/159
f 139/225/149 138/224/148 150/240/160 151/241/161
f 140/227/151 141/226/150 153/242/162 152/243/163
f 142/228/152 136/223/147 148/239/159 154/244/164
f 138/224/148 143/229/153 155/245/165 150/240/160
f 145/231/155 144/230/154 156/246/166 157/247/167
f 146/232/156 140/227/151 152/243/163 158/248/168
f 144/230/154 147/233/157 159/249/169 156/246/166
f 137/222/146 139/234/149 151/250/161 149/238/158
f 141/235/150 142/228/152 154/244/164 153/251/162
f 147/233/157 146/236/156 158/252/168 159/249/169
f 143/237/153 145/231/155 157/247/167 155/253/165
f 154/254/164 162/255/170 152/243/163 153/242/162
f 149/256/158 151/241/161 150/240/160 160/257/171
f 149/256/158 160/257/171 161/258/172 148/259/159
f 148/260/159 161/261/172 162/255/170 154/254/164
f 160/257/171 150/240/160 155/245/165 157/262/167
f 161/258/172 160/257/171 157/262/167 156/263/166
f 162/255/170 161/261/172 156/264/166 159/265/169
f 152/243/163 162/255/170 159/265/169 158/248/168
f 106/195/115 163/182/118 98/166/107 99/165/106
f 111/201/121 164/185/120 104/173/112 105/176/113
f 166/108/66 165/107/68 68/122/78 67/121/75
f 167/106/67 166/105/66 67/118/75 66/117/74
f 168/111/69 167/106/67 66/117/74 70/129/81
f 169/110/70 168/109/69 70/126/81 69/125/80
f 170/115/73 169/110/70 69/125/80 73/266/88
f 171/113/72 170/116/73 73/139/88 72/134/86
f 172/114/71 171/113/72 72/134/86 71/133/84
f 165/107/68 172/112/71 71/131/84 68/122/78
