# Blender v3.1.2 OBJ File: ''
# www.blender.org
mtllib GoatTail01.mtl
o GoatTail__Mesh.004
v 0.301665 0.414755 0.023352
v 0.300245 0.414647 0.000000
v 0.270330 0.431333 0.000000
v 0.273743 0.430497 0.024118
v 0.301665 0.414755 -0.023352
v 0.273743 0.430497 -0.024118
v 0.320224 0.426541 0.023352
v 0.288890 0.443119 0.000000
v 0.292303 0.442283 0.024118
v 0.320224 0.426541 -0.023352
v 0.292303 0.442283 -0.024118
v 0.324357 0.442432 0.021862
v 0.296689 0.453736 0.000000
v 0.299575 0.453462 0.022579
v 0.324357 0.442432 -0.021862
v 0.299575 0.453462 -0.022579
v 0.320250 0.462874 0.016932
v 0.298821 0.471630 0.000000
v 0.301055 0.471417 0.017487
v 0.320250 0.462874 -0.016932
v 0.301055 0.471417 -0.017487
v 0.308429 0.486213 0.000000
v 0.308826 0.482405 0.008579
v 0.297185 0.487893 0.000000
v 0.298306 0.484033 0.008860
v 0.308826 0.482405 -0.008579
v 0.298306 0.484033 -0.008860
v 0.305817 0.414924 0.000000
v 0.321399 0.425066 0.000000
v 0.322728 0.425224 0.021938
v 0.307146 0.415083 0.021938
v 0.307146 0.415083 -0.021938
v 0.322728 0.425224 -0.021938
v 0.325942 0.441810 0.000000
v 0.326998 0.442171 0.020538
v 0.326998 0.442171 -0.020538
v 0.321832 0.462151 0.000000
v 0.322650 0.462430 0.015907
v 0.322650 0.462430 -0.015907
v 0.310973 0.483967 0.000000
v 0.311500 0.480408 0.008060
v 0.311500 0.480408 -0.008060
vt 0.794707 0.930400
vt 0.804939 0.974987
vt 0.772214 0.986447
vt 0.763110 0.938971
vt 0.730632 0.942801
vt 0.737588 0.987941
vt 0.761669 0.931486
vt 0.756897 0.906756
vt 0.785528 0.900083
vt 0.790189 0.924019
vt 0.829577 0.904982
vt 0.804473 0.888942
vt 0.824946 0.862221
vt 0.850140 0.879141
vt 0.847450 0.997749
vt 0.817883 0.991724
vt 0.845979 0.957856
vt 0.875546 0.963881
vt 0.827792 0.905981
vt 0.854513 0.891962
vt 0.890928 0.916668
vt 0.864208 0.930687
vt 0.841937 0.833143
vt 0.866288 0.850345
vt 0.732453 0.935217
vt 0.727888 0.911337
vt 0.752414 0.883600
vt 0.779589 0.877901
vt 0.790729 0.877168
vt 0.809425 0.851799
vt 0.804685 0.973342
vt 0.831058 0.947046
vt 0.865834 0.877425
vt 0.898486 0.895339
vt 0.825847 0.824870
vt 0.725098 0.888532
vt 0.746989 0.855607
vt 0.768432 0.851626
vt 0.774883 0.857592
vt 0.788428 0.837711
vt 0.799034 0.944484
vt 0.819460 0.924117
vt 0.870590 0.852174
vt 0.895879 0.866048
vt 0.801658 0.817625
vt 0.725616 0.859960
vt 0.740548 0.822325
vt 0.752621 0.824789
vt 0.767560 0.838119
vt 0.769820 0.825211
vt 0.801283 0.911457
vt 0.813619 0.903620
vt 0.870493 0.830861
vt 0.884523 0.834954
vt 0.780846 0.818215
vt 0.730261 0.829115
vt 0.795257 0.900058
vt 0.808237 0.891399
vt 0.872260 0.817625
vt 0.887137 0.822327
vt 0.789628 0.899781
vt 0.723982 0.912605
vt 0.783335 0.876539
vt 0.721116 0.888677
vt 0.770837 0.848913
vt 0.722371 0.858344
vt 0.739641 0.817625
vt 0.753006 0.820029
vt 0.728126 0.824836
vn -0.2867 -0.6573 0.6969
vn -0.7721 -0.2955 0.5626
vn -0.9480 -0.3183 0.0000
vn -0.4256 -0.9049 -0.0000
vn -0.2867 -0.6573 -0.6969
vn -0.7721 -0.2955 -0.5626
vn 0.4338 -0.9010 0.0000
vn 0.7937 -0.6083 0.0000
vn 0.8007 -0.5954 0.0661
vn 0.4384 -0.8902 0.1239
vn -0.3071 0.3969 0.8649
vn -0.6452 0.7640 -0.0000
vn 0.0853 -0.0147 0.9962
vn -0.3071 0.3969 -0.8649
vn 0.0853 -0.0147 -0.9962
vn 0.4385 -0.8902 -0.1239
vn 0.8007 -0.5954 -0.0661
vn 0.9996 -0.0295 -0.0000
vn 0.9975 -0.0263 0.0652
vn -0.3747 0.3255 0.8681
vn -0.9388 0.3445 0.0000
vn 0.1471 0.1459 0.9783
vn -0.3747 0.3255 -0.8681
vn 0.1471 0.1459 -0.9783
vn 0.9975 -0.0263 -0.0652
vn 0.9471 0.3208 -0.0000
vn 0.9406 0.3271 0.0910
vn -0.4984 0.3544 0.7912
vn -0.9993 0.0382 -0.0000
vn 0.1992 0.3285 0.9233
vn -0.4984 0.3544 -0.7912
vn 0.1992 0.3285 -0.9233
vn 0.9406 0.3271 -0.0910
vn 0.8471 0.5315 0.0000
vn 0.8309 0.5374 0.1443
vn -0.6290 0.4532 0.6317
vn -0.8677 0.4970 -0.0000
vn 0.2401 0.6445 0.7259
vn -0.6290 0.4532 -0.6317
vn 0.2401 0.6446 -0.7259
vn 0.8309 0.5374 -0.1443
vn 0.2520 0.9677 -0.0000
usemtl lambert1.004
s 1
f 1/1/1 4/2/2 3/3/3 2/4/4
f 5/5/5 2/4/4 3/3/3 6/6/6
f 28/7/7 29/8/8 30/9/9 31/10/10
f 4/11/2 9/12/11 8/13/12 3/14/3
f 1/15/1 7/16/13 9/17/11 4/18/2
f 6/19/6 11/20/14 10/21/15 5/22/5
f 3/14/3 8/13/12 11/23/14 6/24/6
f 32/25/16 33/26/17 29/8/8 28/7/7
f 30/9/9 29/8/8 34/27/18 35/28/19
f 8/13/12 9/12/11 14/29/20 13/30/21
f 9/17/11 7/16/13 12/31/22 14/32/20
f 10/21/15 11/20/14 16/33/23 15/34/24
f 11/23/14 8/13/12 13/30/21 16/35/23
f 29/8/8 33/26/17 36/36/25 34/27/18
f 35/28/19 34/27/18 37/37/26 38/38/27
f 13/30/21 14/29/20 19/39/28 18/40/29
f 14/32/20 12/31/22 17/41/30 19/42/28
f 15/34/24 16/33/23 21/43/31 20/44/32
f 16/35/23 13/30/21 18/40/29 21/45/31
f 34/27/18 36/36/25 39/46/33 37/37/26
f 38/38/27 37/37/26 40/47/34 41/48/35
f 18/40/29 19/39/28 25/49/36 24/50/37
f 19/42/28 17/41/30 23/51/38 25/52/36
f 20/44/32 21/43/31 27/53/39 26/54/40
f 21/45/31 18/40/29 24/50/37 27/55/39
f 37/37/26 39/46/33 42/56/41 40/47/34
f 23/51/38 22/57/42 24/58/37 25/52/36
f 24/59/37 22/60/42 26/54/40 27/53/39
f 7/61/13 1/1/1 31/10/10 30/9/9
f 1/1/1 2/4/4 28/7/7 31/10/10
f 5/5/5 10/62/15 33/26/17 32/25/16
f 2/4/4 5/5/5 32/25/16 28/7/7
f 12/63/22 7/61/13 30/9/9 35/28/19
f 10/62/15 15/64/24 36/36/25 33/26/17
f 17/65/30 12/63/22 35/28/19 38/38/27
f 15/64/24 20/66/32 39/46/33 36/36/25
f 22/67/42 23/68/38 41/48/35 40/47/34
f 23/68/38 17/65/30 38/38/27 41/48/35
f 20/66/32 26/69/40 42/56/41 39/46/33
f 26/69/40 22/67/42 40/47/34 42/56/41
